<svg id="Layer_1" data-name="Layer 1" xmlns="http://www.w3.org/2000/svg" viewBox="0 0 586.24 433.61"><defs><style>.cls-1{fill:#fff;}.cls-2{fill:none;}.cls-3{fill:#63b134;}.cls-4{fill:#e3b535;}.cls-5{fill:#c31b2d;}.cls-6{fill:#4c9c37;}.cls-7{fill:#3e7e45;}.cls-8{fill:#fac00f;}.cls-9{fill:#e6412d;}.cls-10{fill:#f49a2d;}.cls-11{fill:#1594d2;}.cls-12{fill:#a01a42;}.cls-13{fill:#2eb9de;}.cls-14{fill:#eb682f;}.cls-15{fill:#e3233b;}.cls-16{fill:#dc1567;}.cls-17{fill:#18496a;}.cls-18{fill:#c6972c;}.cls-19{fill:#02689c;}</style></defs><title>Echo.ODS 1</title><path class="cls-1" d="M165.08,255.58c0,2.29-.33,4.25-.33,11.78H59.11C63.37,287.32,83,304,103.59,304c14.39,0,31.73-10.15,38.92-22.58l14.39,9.16C147.42,307.93,123.22,321,103.59,321c-34,0-62.46-27.81-62.46-61.84S69.58,197,103.59,197c30.09,0,61.16,23.88,61.16,54A30.75,30.75,0,0,0,165.08,255.58Zm-18-4.58c-4.25-20-23.22-36.65-43.5-36.65C83,214.35,63.37,231,59.11,251Z"/><path class="cls-1" d="M293.94,290.59c-9.48,17.34-34,30.43-53.64,30.43-34,0-62.47-27.81-62.47-61.84S206.29,197,240.3,197c19.63,0,44.16,13.74,53.64,31.08l-15.37,8.18c-7.2-12.43-24.2-21.92-38.27-21.92a44.83,44.83,0,1,0,0,89.66c14.07,0,31.07-10.15,38.27-22.58Z"/><path class="cls-1" d="M412,321H395.33V250.67A36.45,36.45,0,0,0,359,214.35c-19.95,0-35.65,16.36-35.65,36.32V321H306V112.58h17.33v99.15C331.22,203.88,347.25,197,359,197c28.78,0,53,23.88,53,53.66Z"/><path class="cls-2" d="M545.11,259.18c0,34-27.47,61.84-61.48,61.84a62,62,0,0,1-61.82-61.84c0-34,27.8-62.17,61.82-62.17S545.11,225.15,545.11,259.18Zm-16.68,0A44.81,44.81,0,1,0,483.63,304,44.68,44.68,0,0,0,528.43,259.18Z"/><g id="_Group_" data-name="&lt;Group&gt;"><path id="_Path_" data-name="&lt;Path&gt;" class="cls-3" d="M456.34,242.87a33,33,0,0,1,5.14-6.69l-16.84-18.69A58.26,58.26,0,0,0,434,231.57Z"/><path id="_Path_2" data-name="&lt;Path&gt;" class="cls-4" d="M497.62,229.66a31.86,31.86,0,0,1,7.06,4.48l16.89-18.66a57.27,57.27,0,0,0-15-9.45Z"/><path id="_Path_3" data-name="&lt;Path&gt;" class="cls-5" d="M536.29,235.28l-22.38,11.29a32.69,32.69,0,0,1,2.24,8l24.9-2.38a58.16,58.16,0,0,0-4.76-16.92"/><path id="_Path_4" data-name="&lt;Path&gt;" class="cls-6" d="M512.31,243.3,534.68,232A58.13,58.13,0,0,0,524.23,218l-16.89,18.66a33,33,0,0,1,5,6.69"/><path id="_Path_5" data-name="&lt;Path&gt;" class="cls-7" d="M451.9,259.4q0-.76,0-1.53L427,255.62c-.07,1.25-.12,2.51-.12,3.78a58.89,58.89,0,0,0,1.69,14l24-7a33.3,33.3,0,0,1-.75-7"/><path id="_Path_6" data-name="&lt;Path&gt;" class="cls-8" d="M509.17,280.12a32.91,32.91,0,0,1-6.07,5.78l13.15,21.55a58.22,58.22,0,0,0,12.87-12.1Z"/><path id="_Path_7" data-name="&lt;Path&gt;" class="cls-9" d="M516.5,259.4a32.46,32.46,0,0,1-.74,7l24,7a58.81,58.81,0,0,0,1.68-14c0-1.19,0-2.38-.11-3.56l-24.9,2.38c0,.39,0,.79,0,1.18"/><path id="_Path_8" data-name="&lt;Path&gt;" class="cls-10" d="M459.63,280.6l-19.91,15.31a58.22,58.22,0,0,0,13,11.92l13.15-21.53a32.49,32.49,0,0,1-6.24-5.7"/><path id="_Path_9" data-name="&lt;Path&gt;" class="cls-11" d="M452.3,254.24a32.52,32.52,0,0,1,2.38-8.12l-22.37-11.29A58.19,58.19,0,0,0,427.38,252Z"/><path id="_Path_10" data-name="&lt;Path&gt;" class="cls-12" d="M513.19,309.4l-13.13-21.52A32.18,32.18,0,0,1,492.4,291L497,315.92a56.4,56.4,0,0,0,16.16-6.52"/><path id="_Path_11" data-name="&lt;Path&gt;" class="cls-13" d="M514.8,269.88a33,33,0,0,1-3.49,7.28l20,15.25a57.88,57.88,0,0,0,7.56-15.54Z"/><path id="_Path_12" data-name="&lt;Path&gt;" class="cls-14" d="M488.86,291.76a32.56,32.56,0,0,1-4.66.34,31.11,31.11,0,0,1-3.76-.23l-4.63,24.9a58,58,0,0,0,8.39.62,57,57,0,0,0,9.29-.76Z"/><path id="_Path_13" data-name="&lt;Path&gt;" class="cls-15" d="M486.26,226.77a31.6,31.6,0,0,1,8,1.56l9-23.63a56.34,56.34,0,0,0-17-3.25Z"/><path id="_Path_14" data-name="&lt;Path&gt;" class="cls-16" d="M476.88,291.25a32,32,0,0,1-7.93-3L455.8,309.75a56.81,56.81,0,0,0,16.45,6.37Z"/><path id="_Path_15" data-name="&lt;Path&gt;" class="cls-17" d="M474.49,228.21a31.89,31.89,0,0,1,8.16-1.47V201.43a56.36,56.36,0,0,0-17.2,3.17Z"/><path id="_Path_16" data-name="&lt;Path&gt;" class="cls-18" d="M457.44,277.69a32.53,32.53,0,0,1-3.81-7.73l-24,7A58,58,0,0,0,437.53,293Z"/><path id="_Path_17" data-name="&lt;Path&gt;" class="cls-19" d="M464.18,233.75a32.51,32.51,0,0,1,6.93-4.24l-9-23.6a57.12,57.12,0,0,0-14.74,9.14Z"/></g></svg>