<?xml version="1.0" encoding="UTF-8" standalone="no"?>
<svg
   id="Layer_1"
   data-name="Layer 1"
   viewBox="0 0 503.98002 208.44001"
   version="1.1"
   sodipodi:docname="Echo.ODS.svg"
   width="503.98001"
   height="208.44"
   inkscape:version="1.2.2 (732a01da63, 2022-12-09)"
   xmlns:inkscape="http://www.inkscape.org/namespaces/inkscape"
   xmlns:sodipodi="http://sodipodi.sourceforge.net/DTD/sodipodi-0.dtd"
   xmlns="http://www.w3.org/2000/svg"
   xmlns:svg="http://www.w3.org/2000/svg"
   xmlns:rdf="http://www.w3.org/1999/02/22-rdf-syntax-ns#"
   xmlns:cc="http://creativecommons.org/ns#"
   xmlns:dc="http://purl.org/dc/elements/1.1/">
  <sodipodi:namedview
     id="namedview35"
     pagecolor="#ffffff"
     bordercolor="#000000"
     borderopacity="0.25"
     inkscape:showpageshadow="2"
     inkscape:pageopacity="0.0"
     inkscape:pagecheckerboard="0"
     inkscape:deskcolor="#d1d1d1"
     showgrid="false"
     inkscape:zoom="2.0640011"
     inkscape:cx="251.93785"
     inkscape:cy="104.16661"
     inkscape:window-width="2560"
     inkscape:window-height="1369"
     inkscape:window-x="1912"
     inkscape:window-y="2152"
     inkscape:window-maximized="1"
     inkscape:current-layer="Layer_1" />
  <defs
     id="defs4">
    <style
       id="style2">.cls-1{fill:#fff;}.cls-2{fill:none;}.cls-3{fill:#63b134;}.cls-4{fill:#e3b535;}.cls-5{fill:#c31b2d;}.cls-6{fill:#4c9c37;}.cls-7{fill:#3e7e45;}.cls-8{fill:#fac00f;}.cls-9{fill:#e6412d;}.cls-10{fill:#f49a2d;}.cls-11{fill:#1594d2;}.cls-12{fill:#a01a42;}.cls-13{fill:#2eb9de;}.cls-14{fill:#eb682f;}.cls-15{fill:#e3233b;}.cls-16{fill:#dc1567;}.cls-17{fill:#18496a;}.cls-18{fill:#c6972c;}.cls-19{fill:#02689c;}</style>
  </defs>
  <title
     id="title6">Echo.ODS 1</title>
  <path
     class="cls-1"
     d="m 123.95,143 c 0,2.29 -0.33,4.25 -0.33,11.78 H 17.98 c 4.26,19.96 23.89,36.64 44.48,36.64 14.39,0 31.73,-10.15 38.92,-22.58 L 115.77,178 C 106.29,195.35 82.09,208.42 62.46,208.42 28.46,208.42 0,180.61 0,146.58 0,112.55 28.45,84.42 62.46,84.42 c 30.09,0 61.16,23.88 61.16,54 a 30.75,30.75 0 0 0 0.33,4.58 z m -18,-4.58 c -4.25,-20 -23.22,-36.65 -43.5,-36.65 -20.58,0 -40.21,16.65 -44.47,36.65 z"
     id="path8" />
  <path
     class="cls-1"
     d="m 252.81,178.01 c -9.48,17.34 -34,30.43 -53.64,30.43 -34,0 -62.47,-27.81 -62.47,-61.84 0,-34.03 28.46,-62.18 62.47,-62.18 19.63,0 44.16,13.74 53.64,31.08 l -15.37,8.18 c -7.2,-12.43 -24.2,-21.92 -38.27,-21.92 a 44.83,44.83 0 1 0 0,89.66 c 14.07,0 31.07,-10.15 38.27,-22.58 z"
     id="path10" />
  <path
     class="cls-1"
     d="M 370.87,208.42 H 354.2 v -70.33 a 36.45,36.45 0 0 0 -36.33,-36.32 c -19.95,0 -35.65,16.36 -35.65,36.32 v 70.33 H 264.87 V 0 h 17.33 v 99.15 c 7.89,-7.85 23.92,-14.73 35.67,-14.73 28.78,0 53,23.88 53,53.66 z"
     id="path12" />
  <path
     class="cls-2"
     d="m 503.98,146.6 c 0,34 -27.47,61.84 -61.48,61.84 A 62,62 0 0 1 380.68,146.6 c 0,-34 27.8,-62.17 61.82,-62.17 34.02,0 61.48,28.14 61.48,62.17 z m -16.68,0 a 44.81,44.81 0 1 0 -44.8,44.82 44.68,44.68 0 0 0 44.8,-44.82 z"
     id="path14" />
  <g
     id="_Group_"
     data-name="&lt;Group&gt;"
     transform="translate(-41.13,-112.58)">
    <path
       id="_Path_"
       data-name="&lt;Path&gt;"
       class="cls-3"
       d="m 456.34,242.87 a 33,33 0 0 1 5.14,-6.69 L 444.64,217.49 A 58.26,58.26 0 0 0 434,231.57 Z" />
    <path
       id="_Path_2"
       data-name="&lt;Path&gt;"
       class="cls-4"
       d="m 497.62,229.66 a 31.86,31.86 0 0 1 7.06,4.48 l 16.89,-18.66 a 57.27,57.27 0 0 0 -15,-9.45 z" />
    <path
       id="_Path_3"
       data-name="&lt;Path&gt;"
       class="cls-5"
       d="m 536.29,235.28 -22.38,11.29 a 32.69,32.69 0 0 1 2.24,8 l 24.9,-2.38 a 58.16,58.16 0 0 0 -4.76,-16.92" />
    <path
       id="_Path_4"
       data-name="&lt;Path&gt;"
       class="cls-6"
       d="M 512.31,243.3 534.68,232 a 58.13,58.13 0 0 0 -10.45,-14 l -16.89,18.66 a 33,33 0 0 1 5,6.69" />
    <path
       id="_Path_5"
       data-name="&lt;Path&gt;"
       class="cls-7"
       d="m 451.9,259.4 q 0,-0.76 0,-1.53 L 427,255.62 c -0.07,1.25 -0.12,2.51 -0.12,3.78 a 58.89,58.89 0 0 0 1.69,14 l 24,-7 a 33.3,33.3 0 0 1 -0.75,-7" />
    <path
       id="_Path_6"
       data-name="&lt;Path&gt;"
       class="cls-8"
       d="m 509.17,280.12 a 32.91,32.91 0 0 1 -6.07,5.78 l 13.15,21.55 a 58.22,58.22 0 0 0 12.87,-12.1 z" />
    <path
       id="_Path_7"
       data-name="&lt;Path&gt;"
       class="cls-9"
       d="m 516.5,259.4 a 32.46,32.46 0 0 1 -0.74,7 l 24,7 a 58.81,58.81 0 0 0 1.68,-14 c 0,-1.19 0,-2.38 -0.11,-3.56 l -24.9,2.38 c 0,0.39 0,0.79 0,1.18" />
    <path
       id="_Path_8"
       data-name="&lt;Path&gt;"
       class="cls-10"
       d="m 459.63,280.6 -19.91,15.31 a 58.22,58.22 0 0 0 13,11.92 l 13.15,-21.53 a 32.49,32.49 0 0 1 -6.24,-5.7" />
    <path
       id="_Path_9"
       data-name="&lt;Path&gt;"
       class="cls-11"
       d="m 452.3,254.24 a 32.52,32.52 0 0 1 2.38,-8.12 L 432.31,234.83 A 58.19,58.19 0 0 0 427.38,252 Z" />
    <path
       id="_Path_10"
       data-name="&lt;Path&gt;"
       class="cls-12"
       d="M 513.19,309.4 500.06,287.88 A 32.18,32.18 0 0 1 492.4,291 l 4.6,24.92 a 56.4,56.4 0 0 0 16.16,-6.52" />
    <path
       id="_Path_11"
       data-name="&lt;Path&gt;"
       class="cls-13"
       d="m 514.8,269.88 a 33,33 0 0 1 -3.49,7.28 l 20,15.25 a 57.88,57.88 0 0 0 7.56,-15.54 z" />
    <path
       id="_Path_12"
       data-name="&lt;Path&gt;"
       class="cls-14"
       d="m 488.86,291.76 a 32.56,32.56 0 0 1 -4.66,0.34 31.11,31.11 0 0 1 -3.76,-0.23 l -4.63,24.9 a 58,58 0 0 0 8.39,0.62 57,57 0 0 0 9.29,-0.76 z" />
    <path
       id="_Path_13"
       data-name="&lt;Path&gt;"
       class="cls-15"
       d="m 486.26,226.77 a 31.6,31.6 0 0 1 8,1.56 l 9,-23.63 a 56.34,56.34 0 0 0 -17,-3.25 z" />
    <path
       id="_Path_14"
       data-name="&lt;Path&gt;"
       class="cls-16"
       d="m 476.88,291.25 a 32,32 0 0 1 -7.93,-3 l -13.15,21.5 a 56.81,56.81 0 0 0 16.45,6.37 z" />
    <path
       id="_Path_15"
       data-name="&lt;Path&gt;"
       class="cls-17"
       d="m 474.49,228.21 a 31.89,31.89 0 0 1 8.16,-1.47 v -25.31 a 56.36,56.36 0 0 0 -17.2,3.17 z" />
    <path
       id="_Path_16"
       data-name="&lt;Path&gt;"
       class="cls-18"
       d="m 457.44,277.69 a 32.53,32.53 0 0 1 -3.81,-7.73 l -24,7 a 58,58 0 0 0 7.9,16.04 z" />
    <path
       id="_Path_17"
       data-name="&lt;Path&gt;"
       class="cls-19"
       d="m 464.18,233.75 a 32.51,32.51 0 0 1 6.93,-4.24 l -9,-23.6 a 57.12,57.12 0 0 0 -14.74,9.14 z" />
  </g>
  <metadata
     id="metadata141">
    <rdf:RDF>
      <cc:Work
         rdf:about="">
        <dc:title>Echo.ODS 1</dc:title>
      </cc:Work>
    </rdf:RDF>
  </metadata>
</svg>
